<mxfile host="app.diagrams.net" modified="2024-09-03T10:17:12.140Z" agent="Mozilla/5.0 (Windows NT 10.0; Win64; x64) AppleWebKit/537.36 (KHTML, like Gecko) Chrome/128.0.0.0 Safari/537.36 Edg/128.0.0.0" etag="yuFAFNsSCJ3pGdxv6RNZ" version="24.6.4" type="device">
  <diagram name="Side-1" id="oADlp30nDCV2vYs6FohI">
    <mxGraphModel dx="1386" dy="791" grid="1" gridSize="10" guides="1" tooltips="1" connect="1" arrows="1" fold="1" page="1" pageScale="1" pageWidth="827" pageHeight="1169" math="0" shadow="0">
      <root>
        <mxCell id="0" />
        <mxCell id="1" parent="0" />
        <mxCell id="58aI1Z837KsI0yK8r4rZ-2" value="Hvis ikke --&amp;gt; send mail videre til Helpdesk&amp;nbsp;" style="rounded=1;whiteSpace=wrap;html=1;" vertex="1" parent="1">
          <mxGeometry x="354" y="120" width="120" height="60" as="geometry" />
        </mxCell>
        <mxCell id="58aI1Z837KsI0yK8r4rZ-18" value="" style="edgeStyle=orthogonalEdgeStyle;rounded=0;orthogonalLoop=1;jettySize=auto;html=1;endArrow=none;endFill=0;dashed=1;" edge="1" parent="1" source="58aI1Z837KsI0yK8r4rZ-12" target="58aI1Z837KsI0yK8r4rZ-2">
          <mxGeometry relative="1" as="geometry" />
        </mxCell>
        <mxCell id="58aI1Z837KsI0yK8r4rZ-27" value="" style="edgeStyle=orthogonalEdgeStyle;rounded=0;orthogonalLoop=1;jettySize=auto;html=1;" edge="1" parent="1" source="58aI1Z837KsI0yK8r4rZ-12" target="58aI1Z837KsI0yK8r4rZ-14">
          <mxGeometry relative="1" as="geometry" />
        </mxCell>
        <mxCell id="58aI1Z837KsI0yK8r4rZ-12" value="Modtagelse af Aktindsigt via OS2Forms" style="rounded=1;whiteSpace=wrap;html=1;" vertex="1" parent="1">
          <mxGeometry x="200" y="120" width="120" height="60" as="geometry" />
        </mxCell>
        <mxCell id="58aI1Z837KsI0yK8r4rZ-28" value="" style="edgeStyle=orthogonalEdgeStyle;rounded=0;orthogonalLoop=1;jettySize=auto;html=1;" edge="1" parent="1" source="58aI1Z837KsI0yK8r4rZ-14" target="58aI1Z837KsI0yK8r4rZ-15">
          <mxGeometry relative="1" as="geometry" />
        </mxCell>
        <mxCell id="58aI1Z837KsI0yK8r4rZ-14" value="Automatisk oprettelse af Aktindsigtssag i GetOrginaized" style="rounded=1;whiteSpace=wrap;html=1;" vertex="1" parent="1">
          <mxGeometry x="200" y="210" width="120" height="60" as="geometry" />
        </mxCell>
        <mxCell id="58aI1Z837KsI0yK8r4rZ-29" value="" style="edgeStyle=orthogonalEdgeStyle;rounded=0;orthogonalLoop=1;jettySize=auto;html=1;" edge="1" parent="1" source="58aI1Z837KsI0yK8r4rZ-15" target="58aI1Z837KsI0yK8r4rZ-16">
          <mxGeometry relative="1" as="geometry" />
        </mxCell>
        <mxCell id="58aI1Z837KsI0yK8r4rZ-15" value="Automatisk journalisering af aktindsigtsanmodning på aktindsigten" style="rounded=1;whiteSpace=wrap;html=1;" vertex="1" parent="1">
          <mxGeometry x="200" y="300" width="120" height="60" as="geometry" />
        </mxCell>
        <mxCell id="58aI1Z837KsI0yK8r4rZ-30" value="" style="edgeStyle=orthogonalEdgeStyle;rounded=0;orthogonalLoop=1;jettySize=auto;html=1;" edge="1" parent="1" source="58aI1Z837KsI0yK8r4rZ-16" target="58aI1Z837KsI0yK8r4rZ-19">
          <mxGeometry relative="1" as="geometry" />
        </mxCell>
        <mxCell id="58aI1Z837KsI0yK8r4rZ-16" value="Aktindsigtsansvarlig fremsøger specifikke sager og skriver ind i Deskpro" style="rounded=1;whiteSpace=wrap;html=1;" vertex="1" parent="1">
          <mxGeometry x="200" y="390" width="120" height="60" as="geometry" />
        </mxCell>
        <mxCell id="58aI1Z837KsI0yK8r4rZ-35" value="" style="edgeStyle=orthogonalEdgeStyle;rounded=0;orthogonalLoop=1;jettySize=auto;html=1;" edge="1" parent="1" source="58aI1Z837KsI0yK8r4rZ-19" target="58aI1Z837KsI0yK8r4rZ-24">
          <mxGeometry relative="1" as="geometry" />
        </mxCell>
        <mxCell id="58aI1Z837KsI0yK8r4rZ-19" value="Automatisk oprettelse af enkeltsager i Podio" style="rounded=1;whiteSpace=wrap;html=1;" vertex="1" parent="1">
          <mxGeometry x="200" y="484.5" width="120" height="60" as="geometry" />
        </mxCell>
        <mxCell id="58aI1Z837KsI0yK8r4rZ-31" value="" style="edgeStyle=orthogonalEdgeStyle;rounded=0;orthogonalLoop=1;jettySize=auto;html=1;" edge="1" parent="1" source="58aI1Z837KsI0yK8r4rZ-20" target="58aI1Z837KsI0yK8r4rZ-24">
          <mxGeometry relative="1" as="geometry" />
        </mxCell>
        <mxCell id="58aI1Z837KsI0yK8r4rZ-36" value="" style="edgeStyle=orthogonalEdgeStyle;rounded=0;orthogonalLoop=1;jettySize=auto;html=1;endArrow=none;endFill=0;dashed=1;" edge="1" parent="1" source="58aI1Z837KsI0yK8r4rZ-20" target="58aI1Z837KsI0yK8r4rZ-23">
          <mxGeometry relative="1" as="geometry" />
        </mxCell>
        <mxCell id="58aI1Z837KsI0yK8r4rZ-20" value="Automatisk oprettelse af dokumentliste og opload til SharePoint" style="rounded=1;whiteSpace=wrap;html=1;" vertex="1" parent="1">
          <mxGeometry x="200" y="570" width="120" height="60" as="geometry" />
        </mxCell>
        <mxCell id="58aI1Z837KsI0yK8r4rZ-33" value="" style="edgeStyle=orthogonalEdgeStyle;rounded=0;orthogonalLoop=1;jettySize=auto;html=1;" edge="1" parent="1" source="58aI1Z837KsI0yK8r4rZ-21" target="58aI1Z837KsI0yK8r4rZ-25">
          <mxGeometry relative="1" as="geometry" />
        </mxCell>
        <mxCell id="58aI1Z837KsI0yK8r4rZ-21" value="Manuel ekstrahering + håndtering af dokumentlisten&amp;nbsp;" style="rounded=1;whiteSpace=wrap;html=1;" vertex="1" parent="1">
          <mxGeometry x="200" y="750" width="120" height="60" as="geometry" />
        </mxCell>
        <mxCell id="58aI1Z837KsI0yK8r4rZ-23" value="Mail udsendes med link" style="rounded=1;whiteSpace=wrap;html=1;" vertex="1" parent="1">
          <mxGeometry x="354" y="570" width="120" height="60" as="geometry" />
        </mxCell>
        <mxCell id="58aI1Z837KsI0yK8r4rZ-32" value="" style="edgeStyle=orthogonalEdgeStyle;rounded=0;orthogonalLoop=1;jettySize=auto;html=1;" edge="1" parent="1" source="58aI1Z837KsI0yK8r4rZ-24" target="58aI1Z837KsI0yK8r4rZ-21">
          <mxGeometry relative="1" as="geometry" />
        </mxCell>
        <mxCell id="58aI1Z837KsI0yK8r4rZ-24" value="Automatisk indhentning af dokumenter + overførsel til Filarkiv" style="rounded=1;whiteSpace=wrap;html=1;" vertex="1" parent="1">
          <mxGeometry x="200" y="660" width="120" height="60" as="geometry" />
        </mxCell>
        <mxCell id="58aI1Z837KsI0yK8r4rZ-34" value="" style="edgeStyle=orthogonalEdgeStyle;rounded=0;orthogonalLoop=1;jettySize=auto;html=1;" edge="1" parent="1" source="58aI1Z837KsI0yK8r4rZ-25" target="58aI1Z837KsI0yK8r4rZ-26">
          <mxGeometry relative="1" as="geometry" />
        </mxCell>
        <mxCell id="58aI1Z837KsI0yK8r4rZ-25" value="Automatisk overførsel til SharePoint + oprettelse af delingslink" style="rounded=1;whiteSpace=wrap;html=1;" vertex="1" parent="1">
          <mxGeometry x="200" y="840" width="120" height="60" as="geometry" />
        </mxCell>
        <mxCell id="58aI1Z837KsI0yK8r4rZ-26" value="Automatisk udkast til afgørelsesmail" style="rounded=1;whiteSpace=wrap;html=1;" vertex="1" parent="1">
          <mxGeometry x="200" y="930" width="120" height="60" as="geometry" />
        </mxCell>
      </root>
    </mxGraphModel>
  </diagram>
</mxfile>
